# Blender v3.2.0 OBJ File: ''
# www.blender.org
mtllib Chair.mtl
o Cube_Cube.001
v -3.160299 4.684680 3.160299
v -3.160299 5.452172 3.160299
v -3.160299 4.684680 -3.160299
v -3.160299 5.452172 -3.160299
v 3.160299 4.684680 3.160299
v 3.160299 5.452172 3.160299
v 3.160299 4.684680 -3.160299
v 3.160299 5.452172 -3.160299
vt 0.375000 0.000000
vt 0.625000 0.000000
vt 0.625000 0.250000
vt 0.375000 0.250000
vt 0.625000 0.500000
vt 0.375000 0.500000
vt 0.625000 0.750000
vt 0.375000 0.750000
vt 0.625000 1.000000
vt 0.375000 1.000000
vt 0.125000 0.500000
vt 0.125000 0.750000
vt 0.875000 0.500000
vt 0.875000 0.750000
vn -1.0000 0.0000 0.0000
vn 0.0000 0.0000 -1.0000
vn 1.0000 0.0000 0.0000
vn 0.0000 0.0000 1.0000
vn 0.0000 -1.0000 0.0000
vn 0.0000 1.0000 0.0000
usemtl None
s off
f 1/1/1 2/2/1 4/3/1 3/4/1
f 3/4/2 4/3/2 8/5/2 7/6/2
f 7/6/3 8/5/3 6/7/3 5/8/3
f 5/8/4 6/7/4 2/9/4 1/10/4
f 3/11/5 7/6/5 5/8/5 1/12/5
f 8/5/6 4/13/6 2/14/6 6/7/6
o Cube.001_Cube.002
v -3.234931 5.512903 -2.521606
v -3.234931 0.309454 -2.521606
v -3.234931 5.512903 -3.280510
v -3.234931 0.309454 -3.280510
v -2.465225 5.512903 -2.521606
v -2.465225 0.309454 -2.521606
v -2.465225 5.512903 -3.280510
v -2.465225 0.309454 -3.280510
v 3.234931 5.512903 -2.521606
v 3.234931 0.309454 -2.521606
v 3.234931 5.512903 -3.280510
v 3.234931 0.309454 -3.280510
v 2.465225 5.512903 -2.521606
v 2.465225 0.309454 -2.521606
v 2.465225 5.512903 -3.280510
v 2.465225 0.309454 -3.280510
v -3.234930 13.319548 2.521605
v -3.234930 0.310836 2.521605
v -3.234930 13.319548 3.280509
v -3.234930 0.310836 3.280509
v -2.465225 13.319548 2.521605
v -2.465225 0.310836 2.521605
v -2.465225 13.319548 3.280509
v -2.465225 0.310836 3.280509
v 3.234930 13.319548 2.521605
v 3.234930 0.310836 2.521605
v 3.234930 13.319548 3.280509
v 3.234930 0.310836 3.280509
v 2.465225 13.319548 2.521605
v 2.465225 0.310836 2.521605
v 2.465225 13.319548 3.280509
v 2.465225 0.310836 3.280509
vt 0.375000 0.000000
vt 0.375000 0.250000
vt 0.625000 0.250000
vt 0.625000 0.000000
vt 0.375000 0.500000
vt 0.625000 0.500000
vt 0.375000 0.750000
vt 0.625000 0.750000
vt 0.375000 1.000000
vt 0.625000 1.000000
vt 0.125000 0.500000
vt 0.125000 0.750000
vt 0.875000 0.750000
vt 0.875000 0.500000
vt 0.375000 0.000000
vt 0.625000 0.000000
vt 0.625000 0.250000
vt 0.375000 0.250000
vt 0.625000 0.500000
vt 0.375000 0.500000
vt 0.625000 0.750000
vt 0.375000 0.750000
vt 0.625000 1.000000
vt 0.375000 1.000000
vt 0.125000 0.500000
vt 0.125000 0.750000
vt 0.875000 0.500000
vt 0.875000 0.750000
vt 0.375000 0.000000
vt 0.625000 0.000000
vt 0.625000 0.250000
vt 0.375000 0.250000
vt 0.625000 0.500000
vt 0.375000 0.500000
vt 0.625000 0.750000
vt 0.375000 0.750000
vt 0.625000 1.000000
vt 0.375000 1.000000
vt 0.125000 0.500000
vt 0.125000 0.750000
vt 0.875000 0.500000
vt 0.875000 0.750000
vt 0.375000 0.000000
vt 0.375000 0.250000
vt 0.625000 0.250000
vt 0.625000 0.000000
vt 0.375000 0.500000
vt 0.625000 0.500000
vt 0.375000 0.750000
vt 0.625000 0.750000
vt 0.375000 1.000000
vt 0.625000 1.000000
vt 0.125000 0.500000
vt 0.125000 0.750000
vt 0.875000 0.750000
vt 0.875000 0.500000
vn -1.0000 0.0000 0.0000
vn 0.0000 0.0000 -1.0000
vn 1.0000 0.0000 0.0000
vn 0.0000 0.0000 1.0000
vn 0.0000 1.0000 0.0000
vn 0.0000 -1.0000 0.0000
usemtl None
s off
f 9/15/7 11/16/7 12/17/7 10/18/7
f 11/16/8 15/19/8 16/20/8 12/17/8
f 15/19/9 13/21/9 14/22/9 16/20/9
f 13/21/10 9/23/10 10/24/10 14/22/10
f 11/25/11 9/26/11 13/21/11 15/19/11
f 16/20/12 14/22/12 10/27/12 12/28/12
f 17/29/9 18/30/9 20/31/9 19/32/9
f 19/32/8 20/31/8 24/33/8 23/34/8
f 23/34/7 24/33/7 22/35/7 21/36/7
f 21/36/10 22/35/10 18/37/10 17/38/10
f 19/39/11 23/34/11 21/36/11 17/40/11
f 24/33/12 20/41/12 18/42/12 22/35/12
f 25/43/7 26/44/7 28/45/7 27/46/7
f 27/46/10 28/45/10 32/47/10 31/48/10
f 31/48/9 32/47/9 30/49/9 29/50/9
f 29/50/8 30/49/8 26/51/8 25/52/8
f 27/53/11 31/48/11 29/50/11 25/54/11
f 32/47/12 28/55/12 26/56/12 30/49/12
f 33/57/9 35/58/9 36/59/9 34/60/9
f 35/58/10 39/61/10 40/62/10 36/59/10
f 39/61/7 37/63/7 38/64/7 40/62/7
f 37/63/8 33/65/8 34/66/8 38/64/8
f 35/67/11 33/68/11 37/63/11 39/61/11
f 40/62/12 38/64/12 34/69/12 36/70/12
o Cube.002_Cube.003
v -3.160299 5.255507 2.640201
v -3.160299 5.255507 3.089610
v -3.160299 12.887419 2.640202
v -3.160299 12.887419 3.089611
v 3.160299 5.255507 2.640201
v 3.160299 5.255507 3.089610
v 3.160299 12.887419 2.640202
v 3.160299 12.887419 3.089611
vt 0.375000 0.000000
vt 0.625000 0.000000
vt 0.625000 0.250000
vt 0.375000 0.250000
vt 0.625000 0.500000
vt 0.375000 0.500000
vt 0.625000 0.750000
vt 0.375000 0.750000
vt 0.625000 1.000000
vt 0.375000 1.000000
vt 0.125000 0.500000
vt 0.125000 0.750000
vt 0.875000 0.500000
vt 0.875000 0.750000
vn -1.0000 0.0000 0.0000
vn 0.0000 1.0000 0.0000
vn 1.0000 0.0000 0.0000
vn 0.0000 -1.0000 0.0000
vn 0.0000 0.0000 -1.0000
vn 0.0000 -0.0000 1.0000
usemtl None
s off
f 41/71/13 42/72/13 44/73/13 43/74/13
f 43/74/14 44/73/14 48/75/14 47/76/14
f 47/76/15 48/75/15 46/77/15 45/78/15
f 45/78/16 46/77/16 42/79/16 41/80/16
f 43/81/17 47/76/17 45/78/17 41/82/17
f 48/75/18 44/83/18 42/84/18 46/77/18
